<svg xmlns="http://www.w3.org/2000/svg" viewBox="0 0 100 100">
  <circle cx="50" cy="50" r="50" fill="#e2e1de"/>
  <g transform="translate(11.61578947368421 11) scale(0.4105263157894737)"><path d="M 77 1.590 C 63.603 3.954, 55.039 7.103, 44.143 13.669 C 31.052 21.559, 22.555 29.814, 15.265 41.725 C 6.408 56.198, 3.488 64.023, 1.097 79.692 C -0.636 91.050, 0.041 101.493, 3.546 117.500 C 4.538 122.028, 8.937 132.925, 11.394 136.942 C 12.591 138.899, 14.095 141.709, 14.735 143.186 C 17.943 150.589, 39.397 171.323, 49 176.303 C 51.475 177.586, 54.850 179.348, 56.500 180.220 C 61.874 183.057, 67.420 185.271, 71.500 186.209 C 88.246 190.059, 103.699 190.971, 117.308 188.912 C 138.572 185.695, 156.181 175.343, 171.022 157.335 C 177.744 149.179, 185 135.920, 185 131.793 C 185 130.735, 185.486 128.960, 186.081 127.849 C 186.676 126.738, 186.862 125.530, 186.496 125.164 C 185.560 124.231, 181 129.750, 181 131.816 C 181 134.162, 166.951 150.389, 158.472 157.835 C 147.203 167.733, 130.010 175.190, 113 177.559 C 108.131 178.237, 92.953 178.263, 87.500 177.602 C 73.184 175.869, 56.792 168.955, 45.546 159.908 C 26.802 144.829, 15.944 126.039, 12.941 103.485 C 11.162 90.124, 12.705 76.131, 17.352 63.488 C 23.807 45.922, 38.741 28.725, 54 21.283 C 68.376 14.271, 78.967 11.917, 93 12.615 C 104.592 13.191, 107.319 13.783, 118 18.047 C 120.475 19.035, 123.175 20.049, 124 20.300 C 127.161 21.263, 138.256 30.457, 144.547 37.326 C 156.157 50.004, 161.227 63.511, 161.316 82 C 161.377 94.644, 159.958 100.733, 154.031 113.278 C 147.853 126.354, 131.271 139.687, 116.346 143.580 C 98.264 148.297, 78.071 144.359, 64.987 133.565 C 51.961 122.819, 45 108.479, 45 92.394 C 45 83.908, 46.406 78.156, 50.687 69.124 C 56.619 56.608, 66.493 49.269, 81.727 46.052 C 87.976 44.732, 97.834 45.181, 102.332 46.990 C 103.525 47.469, 105.644 48.103, 107.043 48.398 C 110.095 49.042, 121.064 58.747, 123.855 63.273 C 131.899 76.318, 130.193 94.785, 120 105.007 C 105.985 119.060, 79.784 113.432, 77.593 95.897 C 77.090 91.873, 77.341 89.416, 78.556 86.477 C 80.987 80.594, 82.791 79, 87.016 79 L 90.721 79 90.611 84.946 C 90.485 91.707, 91.213 92.808, 96.622 94.027 C 107.658 96.517, 113.317 80.479, 104.458 71.817 C 93.906 61.500, 77.836 64.981, 69.088 79.478 C 66.014 84.572, 65.682 85.846, 65.749 92.317 C 65.886 105.635, 72.152 115.152, 84.776 121.215 C 90.918 124.164, 92.322 124.442, 101 124.419 C 109.978 124.395, 110.885 124.192, 117.518 120.721 C 125.450 116.570, 131.442 110.815, 135.389 103.554 C 139.457 96.071, 140.449 91.456, 140.344 80.500 C 140.254 71.119, 140.015 70.006, 136.488 62.522 C 131.647 52.249, 123.307 43.669, 113.725 39.102 C 104.389 34.653, 98.912 33.431, 89 33.584 C 76.975 33.769, 68.462 36.627, 58.026 43.982 C 51.193 48.797, 48.586 51.438, 43.989 58.198 C 35.688 70.407, 33.498 77.613, 33.567 92.500 C 33.611 102.105, 34.049 105.713, 35.763 110.577 C 45.002 136.794, 65.327 153.676, 91.500 156.869 C 101.213 158.054, 101.832 158.054, 110 156.863 C 140.399 152.432, 163.303 130.962, 171.666 99.059 C 173.475 92.159, 173.622 73.825, 171.925 66.740 C 169.827 57.982, 166.936 49.720, 165.033 47.040 C 164.041 45.643, 162.559 42.925, 161.741 41 C 160.155 37.268, 150.183 25.671, 143.390 19.658 C 138.736 15.539, 124.029 7.094, 119.500 5.940 C 117.850 5.520, 115.150 4.714, 113.500 4.149 C 102.858 0.509, 88.736 -0.481, 77 1.590" fill="#000000"/></g>
</svg>
